{
	"asset":{
		"generator":"Khronos glTF Blender I/O v4.0.44",
		"version":"2.0"
	},
	"scene":0,
	"scenes":[
		{
			"name":"Scene",
			"nodes":[
				0
			]
		}
	],
	"nodes":[
		{
			"mesh":0,
			"name":"Basic Sword"
		}
	],
	"materials":[
		{
			"doubleSided":true,
			"name":"freesword high",
			"normalTexture":{
				"index":0
			},
			"pbrMetallicRoughness":{
				"baseColorTexture":{
					"index":1
				},
				"metallicRoughnessTexture":{
					"index":2
				}
			}
		}
	],
	"meshes":[
		{
			"name":"Cube.001",
			"primitives":[
				{
					"attributes":{
						"POSITION":0,
						"NORMAL":1,
						"TEXCOORD_0":2
					},
					"indices":3,
					"material":0
				}
			]
		}
	],
	"textures":[
		{
			"sampler":0,
			"source":0
		},
		{
			"sampler":0,
			"source":1
		},
		{
			"sampler":0,
			"source":2
		}
	],
	"images":[
		{
			"mimeType":"image/png",
			"name":"sword to be free_DefaultMaterial_Normal",
			"uri":"sword%20to%20be%20free_DefaultMaterial_Normal.png"
		},
		{
			"mimeType":"image/png",
			"name":"sword to be free_DefaultMaterial_BaseColor",
			"uri":"sword%20to%20be%20free_DefaultMaterial_BaseColor.png"
		},
		{
			"mimeType":"image/png",
			"name":"sword to be free_DefaultMaterial_Metallic-sword to be free_DefaultMaterial_Roughness",
			"uri":"sword%20to%20be%20free_DefaultMaterial_Metallic-sword%20to%20be%20free_DefaultMaterial_Roughness.png"
		}
	],
	"accessors":[
		{
			"bufferView":0,
			"componentType":5126,
			"count":6207,
			"max":[
				0.14584031701087952,
				0.013020568527281284,
				0.6514424681663513
			],
			"min":[
				-0.14584031701087952,
				-0.013020568527281284,
				-0.4405483603477478
			],
			"type":"VEC3"
		},
		{
			"bufferView":1,
			"componentType":5126,
			"count":6207,
			"type":"VEC3"
		},
		{
			"bufferView":2,
			"componentType":5126,
			"count":6207,
			"type":"VEC2"
		},
		{
			"bufferView":3,
			"componentType":5123,
			"count":34320,
			"type":"SCALAR"
		}
	],
	"bufferViews":[
		{
			"buffer":0,
			"byteLength":74484,
			"byteOffset":0,
			"target":34962
		},
		{
			"buffer":0,
			"byteLength":74484,
			"byteOffset":74484,
			"target":34962
		},
		{
			"buffer":0,
			"byteLength":49656,
			"byteOffset":148968,
			"target":34962
		},
		{
			"buffer":0,
			"byteLength":68640,
			"byteOffset":198624,
			"target":34963
		}
	],
	"samplers":[
		{
			"magFilter":9729,
			"minFilter":9987
		}
	],
	"buffers":[
		{
			"byteLength":267264,
			"uri":"sword_real.bin"
		}
	]
}
