{
  "asset": {
    "version": "2.0"
  },
  "scene": 0,
  "scenes": [
    {
      "nodes": [0]
    }
  ],
  "nodes": [
    {
      "mesh": 0,
      "scale": [0.1, 0.8, 0.05],
      "translation": [0, 0.4, 0]
    }
  ],
  "materials": [
    {
      "pbrMetallicRoughness": {
        "baseColorFactor": [0.7, 0.7, 0.8, 1.0],
        "metallicFactor": 0.9,
        "roughnessFactor": 0.2
      }
    }
  ],
  "meshes": [
    {
      "primitives": [
        {
          "attributes": {
            "POSITION": 0,
            "NORMAL": 1
          },
          "indices": 2,
          "material": 0
        }
      ]
    }
  ],
  "accessors": [
    {
      "bufferView": 0,
      "componentType": 5126,
      "count": 8,
      "type": "VEC3",
      "min": [-1, -1, -1],
      "max": [1, 1, 1]
    },
    {
      "bufferView": 1,
      "componentType": 5126,
      "count": 8,
      "type": "VEC3"
    },
    {
      "bufferView": 2,
      "componentType": 5123,
      "count": 36,
      "type": "SCALAR",
      "min": [0],
      "max": [7]
    }
  ],
  "bufferViews": [
    {
      "buffer": 0,
      "byteOffset": 0,
      "byteLength": 96
    },
    {
      "buffer": 0,
      "byteOffset": 96,
      "byteLength": 96
    },
    {
      "buffer": 0,
      "byteOffset": 192,
      "byteLength": 72
    }
  ],
  "buffers": [
    {
      "uri": "data:application/octet-stream;base64,",
      "byteLength": 264
    }
  ]
}